<svg width="52" height="52" viewBox="0 0 52 52" fill="none" xmlns="http://www.w3.org/2000/svg">
<g clip-path="url(#clip0_129_315)">
<mask id="mask0_129_315" style="mask-type:alpha" maskUnits="userSpaceOnUse" x="0" y="0" width="52" height="52">
<path d="M52 0H0V52H52V0Z" fill="white"/>
</mask>
<g mask="url(#mask0_129_315)">
<path d="M36.4817 14.184C36.4817 13.6473 36.2685 13.1326 35.889 12.7531C35.5095 12.3736 34.9948 12.1604 34.4581 12.1604H10.1303C9.5936 12.1604 9.07889 12.3736 8.69939 12.7531C8.31989 13.1326 8.10669 13.6473 8.10669 14.184C8.10669 14.7207 8.31989 15.2354 8.69939 15.6149C9.07889 15.9944 9.5936 16.2076 10.1303 16.2076H34.4541C34.7202 16.2082 34.9837 16.1562 35.2297 16.0548C35.4757 15.9533 35.6993 15.8043 35.8876 15.6164C36.0759 15.4284 36.2254 15.2051 36.3273 14.9594C36.4293 14.7136 36.4817 14.4501 36.4817 14.184Z" fill="white"/>
<path d="M32.4278 22.2907C32.4278 21.754 32.2146 21.2393 31.8351 20.8598C31.4556 20.4803 30.9409 20.2671 30.4042 20.2671H10.1303C9.5936 20.2671 9.07889 20.4803 8.69939 20.8598C8.31989 21.2393 8.10669 21.754 8.10669 22.2907C8.10669 22.8274 8.31989 23.3421 8.69939 23.7216C9.07889 24.1011 9.5936 24.3143 10.1303 24.3143H30.4015C30.6674 24.3147 30.9309 24.2626 31.1767 24.161C31.4225 24.0595 31.6459 23.9105 31.8341 23.7226C32.0223 23.5346 32.1716 23.3114 32.2735 23.0657C32.3753 22.82 32.4278 22.5567 32.4278 22.2907Z" fill="white"/>
<path d="M10.1303 28.375C9.5936 28.375 9.07889 28.5882 8.69939 28.9677C8.31989 29.3472 8.10669 29.8619 8.10669 30.3986C8.10669 30.9353 8.31989 31.45 8.69939 31.8295C9.07889 32.209 9.5936 32.4222 10.1303 32.4222H18.2369C18.7736 32.4222 19.2883 32.209 19.6678 31.8295C20.0473 31.45 20.2605 30.9353 20.2605 30.3986C20.2605 29.8619 20.0473 29.3472 19.6678 28.9677C19.2883 28.5882 18.7736 28.375 18.2369 28.375H10.1303Z" fill="white"/>
<path d="M18.2408 44.5882H8.10658C7.03319 44.5882 6.00376 44.1618 5.24476 43.4028C4.48576 42.6438 4.05936 41.6144 4.05936 40.541V8.10658C4.05936 7.03319 4.48576 6.00376 5.24476 5.24476C6.00376 4.48576 7.03319 4.05936 8.10658 4.05936H40.5356C41.609 4.05936 42.6384 4.48576 43.3974 5.24476C44.1564 6.00376 44.5828 7.03319 44.5828 8.10658V20.2671C44.5828 20.8038 44.796 21.3185 45.1755 21.698C45.555 22.0775 46.0697 22.2907 46.6064 22.2907C47.1431 22.2907 47.6578 22.0775 48.0373 21.698C48.4168 21.3185 48.63 20.8038 48.63 20.2671V8.10658C48.6297 5.95879 47.7771 3.8989 46.2596 2.37904C44.742 0.859191 42.6834 0.00357366 40.5356 0H8.10658C5.95669 0.000357689 3.89496 0.854556 2.37476 2.37476C0.854556 3.89496 0.000357689 5.95669 0 8.10658V40.5356C0.000357689 42.6855 0.854556 44.7472 2.37476 46.2674C3.89496 47.7876 5.95669 48.6418 8.10658 48.6422H18.2408C18.7775 48.6422 19.2922 48.429 19.6717 48.0495C20.0512 47.67 20.2644 47.1552 20.2644 46.6186C20.2644 46.0819 20.0512 45.5671 19.6717 45.1876C19.2922 44.8081 18.7775 44.5949 18.2408 44.5949V44.5882Z" fill="white"/>
<path d="M45.0794 30.7493L47.9461 33.6161L36.479 45.0832L33.6149 47.9526L25.016 39.3537L27.8827 36.4855L33.6149 42.2177L45.0821 30.7506M45.0821 26.7034C44.5498 26.7032 44.0228 26.8079 43.5311 27.0116C43.0394 27.2153 42.5927 27.514 42.2166 27.8906L33.6149 36.4855L30.7482 33.6161C30.3722 33.2389 29.9255 32.9397 29.4337 32.7356C28.9418 32.5314 28.4146 32.4264 27.8821 32.4264C27.3495 32.4264 26.8223 32.5314 26.3304 32.7356C25.8386 32.9397 25.3919 33.2389 25.016 33.6161L22.1492 36.4855C21.7721 36.8615 21.4729 37.3082 21.2687 37.8C21.0646 38.2918 20.9595 38.8191 20.9595 39.3516C20.9595 39.8841 21.0646 40.4114 21.2687 40.9032C21.4729 41.3951 21.7721 41.8418 22.1492 42.2177L30.7482 50.8127C31.1241 51.1898 31.5708 51.489 32.0627 51.6931C32.5545 51.8973 33.0818 52.0024 33.6143 52.0024C34.1468 52.0024 34.6741 51.8973 35.1659 51.6931C35.6577 51.489 36.1044 51.1898 36.4804 50.8127L39.3471 47.9526L50.8143 36.4855C51.1914 36.1096 51.4906 35.6629 51.6947 35.171C51.8989 34.6792 52.004 34.1519 52.004 33.6194C52.004 33.0869 51.8989 32.5596 51.6947 32.0678C51.4906 31.576 51.1914 31.1293 50.8143 30.7533L47.9488 27.8879C47.1884 27.1278 46.1572 26.7008 45.0821 26.7007V26.7034Z" fill="white"/>
</g>
</g>
<defs>
<clipPath id="clip0_129_315">
<rect width="52" height="52" fill="white"/>
</clipPath>
</defs>
</svg>
