<svg width="52" height="52" viewBox="0 0 52 52" fill="none" xmlns="http://www.w3.org/2000/svg">
<g clip-path="url(#clip0_19_229)">
<path d="M26.0002 14.8573C23.6964 14.8573 21.4444 15.5108 19.5288 16.7352C17.6133 17.9596 16.1203 19.6998 15.2387 21.7359C14.3571 23.7719 14.1264 26.0123 14.5759 28.1738C15.0253 30.3353 16.1347 32.3207 17.7637 33.879C19.3927 35.4374 21.4682 36.4986 23.7278 36.9285C25.9873 37.3585 28.3293 37.1378 30.4578 36.2945C32.5862 35.4511 34.4054 34.0229 35.6853 32.1905C36.9652 30.3581 37.6484 28.2038 37.6484 26C37.6451 23.0457 36.4168 20.2134 34.2331 18.1244C32.0493 16.0354 29.0885 14.8605 26.0002 14.8573ZM26.0002 33.428C24.4644 33.428 22.9632 32.9923 21.6862 32.1761C20.4093 31.3599 19.414 30.1998 18.8263 28.8425C18.2386 27.4853 18.0848 25.9917 18.3844 24.5508C18.684 23.1099 19.4236 21.7864 20.5095 20.7476C21.5955 19.7088 22.9791 19.0013 24.4853 18.7147C25.9916 18.4281 27.5529 18.5752 28.9717 19.1374C30.3906 19.6996 31.6033 20.6517 32.4566 21.8732C33.3098 23.0947 33.7652 24.5308 33.7652 26C33.7648 27.9699 32.9466 29.859 31.4905 31.252C30.0343 32.6449 28.0595 33.4276 26.0002 33.428Z" fill="white"/>
<path d="M47.2561 27.9626C47.3225 27.3084 47.3557 26.6529 47.3557 26C47.3557 25.3471 47.3225 24.6903 47.2561 24.0374L50.8153 20.7452C51.4391 20.1701 51.8434 19.4116 51.9639 18.5909C52.0843 17.7702 51.9139 16.9346 51.4798 16.2174L47.6035 9.78394C47.1714 9.06592 46.5003 8.50704 45.6974 8.19645C44.8945 7.88585 44.0059 7.84144 43.1735 8.07029L38.3947 9.37738C37.2831 8.6159 36.0972 7.95908 34.8534 7.41609L33.6504 2.80885C33.4391 2.00601 32.9536 1.29365 32.271 0.784798C31.5883 0.275945 30.7476 -0.000261097 29.8821 3.03105e-06H22.1171C21.2508 -0.00105619 20.4091 0.275527 19.7263 0.785608C19.0436 1.29569 18.5591 2.00986 18.3502 2.81414L17.1458 7.41609C15.9047 7.95777 14.7211 8.61281 13.6115 9.37208L8.83958 8.06897C8.49195 7.97411 8.13232 7.92554 7.77084 7.92462C7.08961 7.92446 6.42032 8.09568 5.83011 8.4211C5.2399 8.74652 4.74952 9.21469 4.40818 9.77864L0.531924 16.2121C0.097825 16.9293 -0.0726032 17.7649 0.0478424 18.5856C0.168288 19.4063 0.572664 20.1648 1.19642 20.7399L4.75566 24.0321C4.68921 24.6863 4.65598 25.3418 4.65598 25.9947C4.65598 26.6476 4.68921 27.3044 4.75566 27.9573L1.18397 31.2535C0.561266 31.8293 0.157632 32.5876 0.0372296 33.408C-0.083173 34.2284 0.0865668 35.0638 0.519464 35.7813L4.39572 42.2147C4.82893 42.9318 5.50011 43.4898 6.3027 43.8003C7.10529 44.1107 7.99329 44.1558 8.82573 43.9284L13.6032 42.6213C14.7153 43.3819 15.9017 44.0379 17.1458 44.5799L18.3502 49.1872C18.5591 49.9915 19.0436 50.7056 19.7263 51.2157C20.4091 51.7258 21.2508 52.0024 22.1171 52.0013H29.8821C30.7481 52.001 31.5891 51.7239 32.2715 51.214C32.954 50.7042 33.4388 49.9908 33.649 49.1872L34.852 44.5799C36.0932 44.0383 37.2768 43.3832 38.3863 42.624L43.1652 43.931C43.9977 44.1587 44.8858 44.1137 45.6884 43.8032C46.491 43.4927 47.1622 42.9346 47.5952 42.2174L51.4715 35.7839C51.9056 35.0667 52.076 34.2311 51.9556 33.4104C51.8351 32.5897 51.4307 31.8313 50.807 31.2562L47.2561 27.9626ZM44.234 40.3594L37.5391 38.5279C35.7996 40.0007 33.7701 41.1263 31.5697 41.8386L29.8821 48.2853H22.1171L20.4296 41.832C18.2292 41.1197 16.1997 39.9941 14.4601 38.5213L7.7653 40.3528L3.88904 33.9193L8.8728 29.3028C8.41194 27.1177 8.41194 24.8665 8.8728 22.6813L3.88904 18.0648L7.7653 11.6313L14.4601 13.4628C16.1997 11.99 18.2292 10.8644 20.4296 10.1521L22.1171 3.70805H29.8821L31.5697 10.1614C33.7701 10.8737 35.7996 11.9993 37.5391 13.4721L44.234 11.6406L48.1102 18.0741L43.1265 22.6906C43.5873 24.8757 43.5873 27.1269 43.1265 29.3121L48.1102 33.9286L44.234 40.3594Z" fill="white"/>
</g>
<defs>
<clipPath id="clip0_19_229">
<rect width="52" height="52" fill="white"/>
</clipPath>
</defs>
</svg>
