<svg width="104" height="104" viewBox="0 0 104 104" fill="none" xmlns="http://www.w3.org/2000/svg">
<g clip-path="url(#clip0_209_39)">
<path d="M52 0C23.2812 0 0 23.2812 0 52C0 80.7188 23.2812 104 52 104C80.7188 104 104 80.7188 104 52C104 23.2812 80.7188 0 52 0Z" fill="#DD1B37"/>
<path d="M39.3593 39.3597C39.1294 39.5896 39.0002 39.9015 39.0002 40.2267C39.0002 40.5519 39.1294 40.8637 39.3593 41.0937L61.9056 63.6412C62.0195 63.7552 62.1548 63.8456 62.3037 63.9072C62.4525 63.9689 62.6121 64.0006 62.7732 64.0006C62.9344 64.0006 63.0939 63.9689 63.2428 63.9072C63.3917 63.8456 63.5269 63.7552 63.6409 63.6412C63.871 63.4111 64.0002 63.099 64.0002 62.7736C64.0002 62.6125 63.9685 62.4529 63.9068 62.304C63.8452 62.1552 63.7548 62.0199 63.6409 61.906L41.0946 39.3597C40.9807 39.2457 40.8454 39.1552 40.6966 39.0935C40.5477 39.0318 40.3881 39 40.2269 39C40.0658 39 39.9062 39.0318 39.7573 39.0935C39.6084 39.1552 39.4732 39.2457 39.3593 39.3597V39.3597Z" fill="white" stroke="white" stroke-width="3.5"/>
<path d="M39.3597 63.6413C39.5896 63.8712 39.9015 64.0003 40.2267 64.0003C40.5519 64.0003 40.8637 63.8712 41.0937 63.6413L63.6412 41.095C63.7552 40.981 63.8455 40.8458 63.9072 40.6969C63.9689 40.548 64.0006 40.3885 64.0006 40.2273C64.0006 40.0662 63.9689 39.9066 63.9072 39.7578C63.8455 39.6089 63.7552 39.4736 63.6412 39.3597C63.4111 39.1296 63.099 39.0003 62.7736 39.0003C62.6125 39.0003 62.4529 39.032 62.304 39.0937C62.1552 39.1554 62.0199 39.2458 61.906 39.3597L39.3597 61.906C39.2456 62.0199 39.1552 62.1551 39.0935 62.304C39.0318 62.4529 39 62.6125 39 62.7736C39 62.9348 39.0318 63.0944 39.0935 63.2432C39.1552 63.3921 39.2456 63.5274 39.3597 63.6413V63.6413Z" fill="white" stroke="white" stroke-width="3.5"/>
</g>
<defs>
<clipPath id="clip0_209_39">
<rect width="104" height="104" fill="white" transform="translate(104 104) rotate(-180)"/>
</clipPath>
</defs>
</svg>
