<svg width="104" height="104" viewBox="0 0 104 104" fill="none" xmlns="http://www.w3.org/2000/svg">
<g clip-path="url(#clip0_213_4)">
<path d="M52 0C23.2812 0 0 23.2812 0 52C0 80.7188 23.2812 104 52 104C80.7188 104 104 80.7188 104 52C104 23.2812 80.7188 0 52 0Z" fill="#11B260"/>
<path d="M35.1436 54.1442C35.0517 54.2362 35 54.361 35 54.491C35 54.6211 35.0517 54.7459 35.1436 54.8379L44.1621 63.8569C44.2077 63.9024 44.2618 63.9386 44.3214 63.9633C44.3809 63.9879 44.4447 64.0006 44.5092 64.0006C44.5736 64.0006 44.6375 63.9879 44.697 63.9633C44.7566 63.9386 44.8107 63.9024 44.8562 63.8569C44.9483 63.7648 45 63.64 45 63.5098C45 63.4454 44.9873 63.3815 44.9626 63.322C44.938 63.2624 44.9018 63.2083 44.8562 63.1628L35.8377 54.1442C35.7922 54.0986 35.7381 54.0624 35.6785 54.0378C35.619 54.0131 35.5551 54.0004 35.4907 54.0004C35.4262 54.0004 35.3624 54.0131 35.3028 54.0378C35.2433 54.0624 35.1892 54.0986 35.1436 54.1442V54.1442Z" fill="white" stroke="white" stroke-width="3.5"/>
<path d="M44.3597 63.6409C44.5896 63.8708 44.9015 64 45.2267 64C45.5519 64 45.8637 63.8708 46.0937 63.6409L68.6412 41.0947C68.7552 40.9807 68.8455 40.8455 68.9072 40.6966C68.9689 40.5477 69.0006 40.3882 69.0006 40.227C69.0006 40.0659 68.9689 39.9063 68.9072 39.7575C68.8455 39.6086 68.7552 39.4733 68.6412 39.3594C68.4111 39.1293 68.099 39 67.7736 39C67.6125 39 67.4529 39.0317 67.304 39.0934C67.1552 39.1551 67.0199 39.2454 66.906 39.3594L44.3597 61.9057C44.2456 62.0196 44.1552 62.1548 44.0935 62.3037C44.0318 62.4526 44 62.6121 44 62.7733C44 62.9345 44.0318 63.094 44.0935 63.2429C44.1552 63.3918 44.2456 63.5271 44.3597 63.6409V63.6409Z" fill="white" stroke="white" stroke-width="3.5"/>
</g>
<defs>
<clipPath id="clip0_213_4">
<rect width="104" height="104" fill="white" transform="translate(104 104) rotate(-180)"/>
</clipPath>
</defs>
</svg>
