<svg width="104" height="104" viewBox="0 0 104 104" fill="none" xmlns="http://www.w3.org/2000/svg">
<g clip-path="url(#clip0_204_9)">
<path d="M52 0C23.2812 0 0 23.2812 0 52C0 80.7188 23.2812 104 52 104C80.7188 104 104 80.7188 104 52C104 23.2812 80.7188 0 52 0Z" fill="#00C1D4"/>
<path d="M51.5855 70.5866C51.8507 70.5865 52.105 70.4812 52.2925 70.2937C52.48 70.1062 52.5853 69.8519 52.5854 69.5867L52.5861 43.5857C52.5861 43.4543 52.5602 43.3242 52.5099 43.2028C52.4596 43.0814 52.3859 42.9711 52.293 42.8782C52.2001 42.7853 52.0898 42.7116 51.9684 42.6613C51.847 42.611 51.7169 42.5851 51.5855 42.5851C51.3202 42.5851 51.0657 42.6906 50.878 42.8782C50.7851 42.9711 50.7114 43.0814 50.6611 43.2028C50.6108 43.3242 50.585 43.4543 50.585 43.5857L50.585 69.586C50.5849 69.7174 50.6107 69.8476 50.661 69.969C50.7112 70.0904 50.7849 70.2008 50.8779 70.2937C50.9708 70.3866 51.0811 70.4603 51.2025 70.5106C51.324 70.5608 51.4541 70.5866 51.5855 70.5866V70.5866Z" fill="white" stroke="white" stroke-width="3.5"/>
<path d="M51.5859 32.778C49.9291 32.778 48.5859 34.1212 48.5859 35.778C48.5859 37.4349 49.9291 38.778 51.5859 38.778C53.2428 38.778 54.5859 37.4349 54.5859 35.778C54.5859 34.1212 53.2428 32.778 51.5859 32.778Z" fill="white"/>
</g>
<defs>
<clipPath id="clip0_204_9">
<rect width="104" height="104" fill="white" transform="translate(104 104) rotate(-180)"/>
</clipPath>
</defs>
</svg>
