<svg width="52" height="52" viewBox="0 0 52 52" fill="none" xmlns="http://www.w3.org/2000/svg">
<path d="M40.1459 3.30906C37.4166 1.46777 34.2025 0.477183 30.9102 0.462566C27.6179 0.447949 24.3952 1.40996 21.6497 3.22694C18.9041 5.04392 16.759 7.63426 15.4857 10.6704C14.2123 13.7065 13.8679 17.0521 14.496 20.2839C15.1241 23.5158 16.6964 26.4888 19.0142 28.8271C21.332 31.1653 24.2911 32.7638 27.5173 33.4202C30.7435 34.0767 34.092 33.7617 37.1392 32.5151C40.1864 31.2685 42.7955 29.1462 44.6365 26.4168C47.1051 22.7569 48.0188 18.2664 47.1767 13.9329C46.3345 9.59945 43.8055 5.77797 40.1459 3.30906ZM24.6325 26.3086C22.8131 25.0813 21.3984 23.3421 20.5674 21.3109C19.7364 19.2796 19.5264 17.0476 19.9639 14.897C20.4015 12.7464 21.4669 10.7738 23.0255 9.22876C24.5841 7.68369 26.5659 6.63549 28.7202 6.21673C30.8746 5.79797 33.1047 6.02745 35.1286 6.87615C37.1525 7.72484 38.8793 9.15464 40.0907 10.9847C41.302 12.8148 41.9434 14.963 41.9338 17.1577C41.9242 19.3523 41.2641 21.4948 40.0369 23.3143C38.3909 25.7538 35.8435 27.4396 32.9547 28.0012C30.066 28.5627 27.0725 27.9539 24.6325 26.3086Z" fill="white"/>
<path d="M20.7803 27.0564L7.58198 46.6236C6.98472 47.5091 7.53044 48.9219 8.80023 49.7784C10.0701 50.6348 11.5877 50.6068 12.1817 49.7261L25.3799 30.1589L20.7803 27.0564Z" fill="white"/>
</svg>
