<svg width="52" height="52" viewBox="0 0 52 52" fill="none" xmlns="http://www.w3.org/2000/svg">
<path d="M40.1459 3.30915C37.4166 1.46786 34.2025 0.477275 30.9102 0.462658C27.6179 0.448042 24.3952 1.41005 21.6497 3.22703C18.9041 5.04401 16.759 7.63435 15.4857 10.6705C14.2123 13.7066 13.8679 17.0522 14.496 20.284C15.1241 23.5159 16.6964 26.4889 19.0142 28.8272C21.332 31.1654 24.2911 32.7639 27.5173 33.4203C30.7435 34.0768 34.092 33.7618 37.1392 32.5152C40.1864 31.2686 42.7955 29.1463 44.6365 26.4169C47.1051 22.757 48.0188 18.2665 47.1767 13.933C46.3345 9.59954 43.8055 5.77806 40.1459 3.30915ZM24.6325 26.3087C22.8131 25.0814 21.3984 23.3422 20.5674 21.311C19.7364 19.2797 19.5264 17.0477 19.9639 14.8971C20.4015 12.7465 21.4669 10.7739 23.0255 9.22885C24.5841 7.68378 26.5659 6.63558 28.7202 6.21682C30.8746 5.79806 33.1047 6.02754 35.1286 6.87624C37.1525 7.72493 38.8793 9.15473 40.0906 10.9848C41.302 12.8149 41.9434 14.9631 41.9338 17.1578C41.9242 19.3524 41.2641 21.4949 40.0369 23.3144C38.3909 25.7539 35.8435 27.4397 32.9547 28.0013C30.066 28.5628 27.0725 27.954 24.6325 26.3087Z" fill="#003865"/>
<path d="M20.7803 27.0564L7.58202 46.6236C6.98475 47.5091 7.53048 48.9219 8.80027 49.7784C10.0701 50.6348 11.5877 50.6068 12.1817 49.7261L25.3799 30.1589L20.7803 27.0564Z" fill="#003865"/>
</svg>
