<svg width="52" height="52" viewBox="0 0 52 52" fill="none" xmlns="http://www.w3.org/2000/svg">
<g clip-path="url(#clip0_1_36)">
<path d="M7.42857 14.1435H44.5714C45.5567 14.1435 46.5016 14.5349 47.1983 15.2316C47.8949 15.9282 48.2863 16.8731 48.2863 17.8584H52.0012C52.0012 15.8882 51.2186 13.9987 49.8255 12.6056C48.4323 11.2125 46.5429 10.4298 44.5727 10.4298H40.8578V6.71491C40.8578 5.72965 40.4664 4.78475 39.7697 4.08807C39.073 3.39139 38.1281 3 37.1429 3H14.8571C13.8719 3 12.927 3.39139 12.2303 4.08807C11.5336 4.78475 11.1422 5.72965 11.1422 6.71491V10.4298H7.42857C5.45861 10.4298 3.56931 11.2123 2.17622 12.6052C0.783127 13.998 0.000330254 15.8872 0 17.8571H3.71491C3.71524 16.8723 4.1066 15.9279 4.80298 15.2316C5.49935 14.5352 6.44375 14.1438 7.42857 14.1435ZM14.8571 6.71491H37.1491V10.4298H14.8571V6.71491Z" fill="#003865"/>
<path d="M48.2863 21.5721C48.2863 22.5573 47.8949 23.5022 47.1983 24.1989C46.5016 24.8956 45.5567 25.287 44.5714 25.287H33.4292V29.0019H44.5714C45.876 29.0037 47.1577 28.6599 48.2863 28.0056V41.9997C48.2863 42.985 47.8949 43.9299 47.1983 44.6266C46.5016 45.3232 45.5567 45.7146 44.5714 45.7146H7.42857C6.44332 45.7146 5.49841 45.3232 4.80173 44.6266C4.10505 43.9299 3.71366 42.985 3.71366 41.9997V27.9981C4.84225 28.6525 6.12401 28.9962 7.42857 28.9944H18.5721V25.2857H7.42857C6.44332 25.2857 5.49841 24.8944 4.80173 24.1977C4.10505 23.501 3.71366 22.5561 3.71366 21.5708V17.8572H0V41.9997C0 43.9699 0.782651 45.8594 2.17578 47.2525C3.56891 48.6456 5.45839 49.4283 7.42857 49.4283H44.5714C46.5416 49.4283 48.4311 48.6456 49.8242 47.2525C51.2173 45.8594 52 43.9699 52 41.9997V17.8572H48.2863V21.5721Z" fill="#003865"/>
<path d="M23.7715 24.3567C22.9603 24.2897 22.1552 24.5442 21.5299 25.0654C20.9046 25.5865 20.5092 26.3326 20.429 27.1426C20.5092 27.9526 20.9046 28.6987 21.5299 29.2198C22.1552 29.741 22.9603 29.9955 23.7715 29.9285H28.2286C29.0399 29.9955 29.845 29.741 30.4703 29.2198C31.0955 28.6987 31.491 27.9526 31.5712 27.1426C31.491 26.3326 31.0955 25.5865 30.4703 25.0654C29.845 24.5442 29.0399 24.2897 28.2286 24.3567H23.7715Z" fill="#003865"/>
</g>
<defs>
<clipPath id="clip0_1_36">
<rect width="52" height="52" fill="white"/>
</clipPath>
</defs>
</svg>
