<svg id="Componente_27_116" data-name="Componente 27 – 116" xmlns="http://www.w3.org/2000/svg" width="23.523" height="25.145" viewBox="0 0 23.523 25.145">
  <path id="Trazado_16344" data-name="Trazado 16344" d="M25.269,20a5.389,5.389,0,1,0,5.269,5.388A5.336,5.336,0,0,0,25.269,20Zm0,8.98a3.593,3.593,0,1,1,3.513-3.592A3.553,3.553,0,0,1,25.269,28.98Z" transform="translate(-13.508 -12.815)" fill="#003865"/>
  <path id="Trazado_16345" data-name="Trazado 16345" d="M26.592,17.521c.03-.316.045-.633.045-.949s-.015-.633-.045-.949l1.61-1.592a1.826,1.826,0,0,0,.3-2.189L26.746,8.731a1.751,1.751,0,0,0-1.521-.9,1.724,1.724,0,0,0-.483.07l-2.162.632a9.54,9.54,0,0,0-1.6-.946L20.437,5.36A1.765,1.765,0,0,0,18.733,4H15.22a1.764,1.764,0,0,0-1.7,1.36l-.545,2.228a9.54,9.54,0,0,0-1.6.946L9.211,7.9a1.732,1.732,0,0,0-2,.829L5.45,11.841a1.826,1.826,0,0,0,.3,2.189l1.61,1.592c-.03.316-.045.633-.045.949s.015.633.045.949l-1.61,1.592a1.826,1.826,0,0,0-.3,2.189l1.756,3.111a1.75,1.75,0,0,0,1.521.9,1.726,1.726,0,0,0,.483-.069l2.161-.632a9.54,9.54,0,0,0,1.6.946l.545,2.228a1.764,1.764,0,0,0,1.7,1.36h3.513a1.765,1.765,0,0,0,1.7-1.36l.544-2.228a9.54,9.54,0,0,0,1.6-.946l2.162.632a1.721,1.721,0,0,0,.483.069,1.75,1.75,0,0,0,1.521-.9L28.5,21.3a1.826,1.826,0,0,0-.3-2.189Zm-1.367,5.994L22.2,22.63a7.849,7.849,0,0,1-2.7,1.6l-.763,3.121H15.22l-.763-3.121a7.849,7.849,0,0,1-2.7-1.6l-3.029.886L6.971,20.4l2.257-2.232a8.273,8.273,0,0,1,0-3.2L6.971,12.739,8.728,9.629l3.029.886a7.849,7.849,0,0,1,2.7-1.6L15.22,5.8h3.513L19.5,8.917a7.849,7.849,0,0,1,2.7,1.6l3.029-.886,1.756,3.111-2.257,2.232a8.273,8.273,0,0,1,0,3.2L26.982,20.4Z" transform="translate(-5.215 -4)" fill="#003865"/>
</svg>
