<svg width="75" height="45" viewBox="0 0 75 45" fill="none" xmlns="http://www.w3.org/2000/svg">
<g clip-path="url(#clip0_101_2)">
<path d="M73.507 21.5535C72.9893 20.7073 60.5588 0.845062 37.5 0.845062C14.4413 0.845062 2.0097 20.7073 1.49101 21.5535L0.912231 22.5L1.49101 23.4431C2.0097 24.2893 14.4413 44.155 37.5 44.155C60.5588 44.155 72.9893 24.2893 73.507 23.4431L74.0878 22.5L73.507 21.5535ZM37.5 40.8209C18.8191 40.8209 7.31678 26.3681 4.56912 22.4944C7.30977 18.6161 18.775 4.17462 37.5 4.17462C56.1809 4.17462 67.6823 18.624 70.4309 22.4978C67.6893 26.3783 56.223 40.8243 37.5 40.8243V40.8209Z" fill="#003865" stroke="#003865" stroke-width="1.5"/>
<path d="M37 11C34.6266 11 32.3066 11.7038 30.3332 13.0224C28.3598 14.3409 26.8217 16.2151 25.9135 18.4078C25.0052 20.6005 24.7676 23.0133 25.2306 25.3411C25.6936 27.6689 26.8365 29.8071 28.5147 31.4853C30.193 33.1635 32.3312 34.3064 34.6589 34.7694C36.9867 35.2324 39.3995 34.9948 41.5922 34.0866C43.7849 33.1783 45.6591 31.6402 46.9776 29.6668C48.2962 27.6935 49 25.3734 49 23C48.9967 19.8184 47.7313 16.7681 45.4816 14.5184C43.2319 12.2687 40.1816 11.0033 37 11V11ZM37 32.3323C35.1541 32.3323 33.3496 31.7849 31.8148 30.7594C30.2799 29.7338 29.0836 28.2762 28.3772 26.5708C27.6708 24.8654 27.486 22.9887 27.8461 21.1783C28.2062 19.3678 29.0951 17.7048 30.4004 16.3995C31.7057 15.0942 33.3687 14.2053 35.1792 13.8452C36.9897 13.4851 38.8663 13.6699 40.5717 14.3763C42.2771 15.0827 43.7348 16.279 44.7603 17.8138C45.7859 19.3487 46.3333 21.1532 46.3333 22.9991C46.3304 25.4736 45.3461 27.8458 43.5964 29.5955C41.8467 31.3452 39.4744 32.3295 37 32.3323V32.3323Z" fill="#003865" stroke="#003865" stroke-width="1.5"/>
</g>
<defs>
<clipPath id="clip0_101_2">
<rect width="75" height="45" fill="white"/>
</clipPath>
</defs>
</svg>
