<svg width="52" height="52" viewBox="0 0 52 52" fill="none" xmlns="http://www.w3.org/2000/svg">
<g clip-path="url(#clip0_22_2)">
<path d="M26 50.9064C19.3969 50.8985 13.0664 48.2719 8.39721 43.6028C3.72806 38.9336 1.1015 32.6032 1.09369 26C1.1015 19.3969 3.72806 13.0664 8.39721 8.39724C13.0664 3.7281 19.3969 1.1015 26 1.09369C32.6032 1.1015 38.9336 3.7281 43.6028 8.39724C48.2719 13.0664 50.8985 19.3969 50.9063 26C50.8985 32.6032 48.2719 38.9336 43.6028 43.6028C38.9336 48.2719 32.6032 50.8985 26 50.9064V50.9064ZM26 3.16837C19.9474 3.17618 14.1449 5.58431 9.86541 9.86447C5.58586 14.1446 3.17862 19.9474 3.17167 26C3.17891 32.0528 5.58659 37.8557 9.86657 42.1356C14.1466 46.4156 19.9494 48.8233 26.0022 48.8305C32.055 48.8233 37.8578 46.4156 42.1378 42.1356C46.4178 37.8557 48.8255 32.0528 48.8327 26C48.8249 19.9472 46.4167 14.1446 42.1363 9.865C37.8559 5.58543 32.0528 3.17836 26 3.1717V3.16837Z" fill="#003865" stroke="#003865" stroke-width="2"/>
<path d="M26.9898 38.632C26.9898 38.9145 26.8776 39.1854 26.6778 39.3852C26.478 39.585 26.2071 39.6972 25.9246 39.6972C25.642 39.6972 25.3711 39.585 25.1713 39.3852C24.9715 39.1854 24.8593 38.9145 24.8593 38.632C24.8593 38.3494 24.9715 38.0785 25.1713 37.8787C25.3711 37.6789 25.642 37.5667 25.9246 37.5667C26.2071 37.5667 26.478 37.6789 26.6778 37.8787C26.8776 38.0785 26.9898 38.3494 26.9898 38.632Z" fill="#003865" stroke="#003865" stroke-width="2"/>
<path d="M34.2846 20.7274C34.265 18.5222 33.3759 16.4138 31.8105 14.8605C30.2451 13.3071 28.1298 12.4343 25.9245 12.4318C23.7077 12.4341 21.5824 13.3158 20.0149 14.8833C18.4473 16.4508 17.5657 18.5762 17.5634 20.793C17.5634 21.0755 17.6756 21.3465 17.8754 21.5462C18.0752 21.746 18.3461 21.8583 18.6286 21.8583C18.9111 21.8583 19.1821 21.746 19.3819 21.5462C19.5816 21.3465 19.6939 21.0755 19.6939 20.793C19.6939 19.1397 20.3507 17.554 21.5198 16.3849C22.6889 15.2158 24.2745 14.559 25.9278 14.559C27.5812 14.559 29.1668 15.2158 30.3359 16.3849C31.505 17.554 32.1618 19.1397 32.1618 20.793C32.1618 20.8116 32.1618 20.8302 32.1618 20.8499C32.1522 22.0625 31.7886 23.246 31.1158 24.2549C30.443 25.2639 29.4902 26.0544 28.3744 26.5293C27.327 26.9813 26.4358 27.7315 25.8117 28.6863C25.1877 29.6412 24.8583 30.7586 24.8648 31.8993V34.3721C24.8648 34.6546 24.977 34.9256 25.1768 35.1253C25.3765 35.3251 25.6475 35.4373 25.93 35.4373C26.2125 35.4373 26.4835 35.3251 26.6833 35.1253C26.883 34.9256 26.9953 34.6546 26.9953 34.3721V31.8993C26.9891 31.176 27.1959 30.4669 27.59 29.8604C27.984 29.2538 28.5477 28.7765 29.211 28.4881C30.7197 27.8456 32.0059 26.7734 32.9095 25.4051C33.813 24.0367 34.2939 22.4328 34.2923 20.793C34.2923 20.7711 34.2923 20.7493 34.2923 20.7285L34.2846 20.7274Z" fill="#003865" stroke="#003865" stroke-width="2"/>
</g>
<defs>
<clipPath id="clip0_22_2">
<rect width="52" height="52" fill="white"/>
</clipPath>
</defs>
</svg>
