<svg xmlns="http://www.w3.org/2000/svg" width="104" height="104" viewBox="0 0 104 104">
  <g id="Grupo_8802" data-name="Grupo 8802" transform="translate(-209.199 -209.199)">
    <g id="Grupo_8292" data-name="Grupo 8292" transform="translate(209.199 209.199)">
      <circle id="Elipse_53" data-name="Elipse 53" cx="52" cy="52" r="52" fill="#ffb81c"/>
    </g>
    <g id="Grupo_8293" data-name="Grupo 8293" transform="translate(244.906 234.84)">
      <g id="Grupo_8287" data-name="Grupo 8287" transform="translate(0 0)">
        <path id="Trazado_17080" data-name="Trazado 17080" d="M32.425,13.086A15.712,15.712,0,0,0,30.072,7.4,16.428,16.428,0,0,0,.019,14.612a3,3,0,0,0,2.527,3.3A2.952,2.952,0,0,0,4.8,17.326,3.112,3.112,0,0,0,6,15.217,10.415,10.415,0,0,1,19.032,6.351,9.215,9.215,0,0,1,21.594,7.42a10.5,10.5,0,0,1,4.824,11.632,9.222,9.222,0,0,1-1.085,2.622,10.493,10.493,0,0,1-9,5.144,10.643,10.643,0,0,1-1.357-.087,4.288,4.288,0,0,0-3.743,1.329l-.17.187a4.184,4.184,0,0,0-1.09,2.82v9.687a3.007,3.007,0,1,0,6.015,0V32.83c.075,0,.151,0,.231,0a12.621,12.621,0,0,0,2.863-.312l.977-.225a16.3,16.3,0,0,0,5.445-2.265,16.429,16.429,0,0,0,6.918-16.944" transform="translate(0 0)" fill="#fff"/>
        <path id="Trazado_17081" data-name="Trazado 17081" d="M15.214,51.729a3.151,3.151,0,1,0,3.15,3.15,3.15,3.15,0,0,0-3.15-3.15" transform="translate(-1.986 -4.851)" fill="#fff"/>
      </g>
    </g>
  </g>
</svg>
