<svg xmlns="http://www.w3.org/2000/svg" xmlns:xlink="http://www.w3.org/1999/xlink" width="82" height="82" viewBox="0 0 82 82">
  <defs>
    <clipPath id="clip-Web_1920_2">
      <rect width="82" height="82"/>
    </clipPath>
  </defs>
  <g id="Web_1920_2" data-name="Web 1920 – 2" clip-path="url(#clip-Web_1920_2)">
    <rect width="82" height="82" fill="#fff"/>
    <g id="Grupo_7920" data-name="Grupo 7920" transform="translate(14.721 7.159)">
      <g id="Grupo_7603" data-name="Grupo 7603" transform="translate(0 0)">
        <g id="Grupo_7604" data-name="Grupo 7604">
          <path id="Trazado_16133" data-name="Trazado 16133" d="M407.557,529.065H395.916V516.649a.653.653,0,0,0-.031-.21,13.649,13.649,0,0,0-27.295,0,1,1,0,0,0-.023.214v6.437a.9.9,0,0,0,1.791,0v-6.231a.933.933,0,0,0,.027-.206,11.857,11.857,0,1,1,23.714,0,.7.7,0,0,0,.026.2v12.217H356.789a.9.9,0,0,0-.9.9V569.78a.9.9,0,0,0,.9.9h50.767a.9.9,0,0,0,.893-.9V529.963A.9.9,0,0,0,407.557,529.065Zm-49.874,39.822V530.856h48.98v38.031Z" transform="translate(-355.892 -502.996)" fill="#666" stroke="#666" stroke-width="1.5"/>
        </g>
      </g>
      <path id="Exclusión_1" data-name="Exclusión 1" d="M51.548,40.7H0V0H51.548V40.7ZM24.842,13.259a3.138,3.138,0,0,0-2.008,5.548v7.047a2.01,2.01,0,0,0,4.019,0V18.8a3.137,3.137,0,0,0-2.011-5.545Z" transform="translate(0 26.414)" fill="#666"/>
    </g>
  </g>
</svg>
