<svg width="52" height="52" viewBox="0 0 52 52" fill="none" xmlns="http://www.w3.org/2000/svg">
<path d="M35.5 35.2859H31.0001C31.0001 36.271 30.5259 37.2157 29.6821 37.9123C28.8381 38.6089 27.6936 39.0002 26.5001 39.0002C25.3066 39.0002 24.162 38.6089 23.318 37.9123C22.4742 37.2157 22.0001 36.271 22.0001 35.2859H17.5C10.0559 35.2859 4 40.2844 4 46.4288C4.00012 46.9213 4.23718 47.3935 4.65904 47.7417C5.08089 48.0899 5.65303 48.2856 6.24962 48.2857H8.49927V46.4288C8.49939 44.4587 9.44754 42.5692 11.1354 41.1761C12.8232 39.783 15.1123 39.0003 17.4993 39.0002H18.7135C19.5017 40.1293 20.6363 41.0671 22.0032 41.7192C23.37 42.3712 24.9209 42.7145 26.4996 42.7145C28.0784 42.7145 29.6293 42.3712 30.9961 41.7192C32.363 41.0671 33.4977 40.1293 34.2858 39.0002H35.4996C37.8866 39.0003 40.1757 39.783 41.8635 41.1761C43.5514 42.5692 44.4995 44.4587 44.4996 46.4288V48.2857H8.5V52H44.5C45.6935 51.9999 46.838 51.6086 47.682 50.912C48.5259 50.2155 49 49.2708 49 48.2857V46.4288C49 40.2844 42.9441 35.2859 35.5 35.2859Z" fill="#FFB81C"/>
<path d="M33.2499 1.85685C32.9766 1.85792 32.7037 1.87063 32.4319 1.89494C29.9685 0.652547 27.1368 -0.00326947 24.2498 1.22562e-05C15.5646 1.22562e-05 8.49979 5.83128 8.49979 13.0001C8.49822 14.8381 8.97314 16.6552 9.89257 18.3292C10.0701 18.6553 10.358 18.9321 10.7216 19.1264C11.0853 19.3206 11.5091 19.424 11.9424 19.4241C11.993 19.4241 12.0424 19.4231 12.0931 19.4194C12.3994 19.4027 12.7028 19.3729 13.0055 19.3451C13.0055 19.3971 12.9998 19.4478 12.9998 19.5002C12.9998 27.3105 18.9298 33.4289 26.4999 33.4289C34.0701 33.4289 39.9999 27.3105 39.9999 19.5002C39.9999 19.1733 39.9741 18.854 39.9527 18.5326C40.0178 18.5044 40.0813 18.4734 40.1428 18.4398C41.4995 17.5818 42.5985 16.4771 43.3543 15.2116C44.1099 13.9461 44.502 12.5539 44.4999 11.143C44.4963 8.68117 43.3099 6.32099 41.2009 4.58015C39.0919 2.83932 36.2325 1.85995 33.2499 1.85685ZM26.4999 29.7144C21.5285 29.7144 17.4998 25.1412 17.4998 19.5001C17.4998 19.1509 17.5291 18.8111 17.5617 18.4722C22.3437 17.0622 26.3119 14.2242 28.6835 10.518C30.7628 11.3289 32.5984 12.5105 34.0577 13.9777C34.9644 15.5711 35.4999 17.4626 35.4999 19.4999C35.4999 25.141 31.4697 29.7143 26.4999 29.7143M39.2788 13.6269C36.7749 10.1845 32.8421 7.6094 28.2111 6.38027C27.6646 6.23437 27.0711 6.26672 26.5527 6.47067C26.0343 6.67462 25.6302 7.03469 25.4233 7.47692C23.4299 11.7214 18.8276 14.7793 13.4364 15.5522C13.146 14.7229 12.9991 13.8638 12.9999 13.0005C12.9987 11.3078 13.5584 9.64713 14.6184 8.19811C15.6785 6.74909 17.1984 5.56694 19.0137 4.77958C20.8291 3.99223 22.8708 3.62966 24.9178 3.73111C26.9649 3.83255 28.9393 4.39416 30.6275 5.35514C31.1196 5.61945 31.7117 5.72644 32.2925 5.65603C32.6086 5.60805 32.9286 5.57981 33.2499 5.57156C35.0393 5.5734 36.7549 6.16098 38.0203 7.20544C39.2857 8.24989 39.9976 9.66595 39.9998 11.143C40.001 12.0065 39.7538 12.8578 39.2787 13.627" fill="#FFB81C"/>
</svg>
