<svg width="52" height="52" viewBox="0 0 52 52" fill="none" xmlns="http://www.w3.org/2000/svg">
<g clip-path="url(#clip0_1_92)">
<path d="M36.4 30.7272H31.2004C31.2004 31.981 30.6525 33.1834 29.6773 34.07C28.702 34.9565 27.3793 35.4546 26.0002 35.4546C24.621 35.4546 23.2983 34.9565 22.3231 34.07C21.3478 33.1834 20.8 31.981 20.8 30.7272H15.6002C6.99791 30.7272 0 37.0889 0 44.9091C4.26052e-05 45.5359 0.273982 46.1371 0.761562 46.5804C1.24914 47.0236 1.91043 47.2726 2.59998 47.2727H5.20003V44.9091C5.20012 42.4016 6.29587 39.9968 8.24626 38.2237C10.1966 36.4507 12.8419 35.4545 15.6002 35.4545H17.0029C17.9136 36.8915 19.2248 38.085 20.8043 38.9149C22.3838 39.7448 24.1759 40.1817 26.0002 40.1817C27.8245 40.1817 29.6167 39.7448 31.1961 38.9149C32.7756 38.085 34.0868 36.8915 34.9975 35.4545H36.4002C39.1584 35.4546 41.8036 36.4508 43.7539 38.2239C45.7042 39.9969 46.7999 42.4016 46.8 44.9091V47.2727H5.20003V52H46.8C48.1791 52 49.5017 51.5019 50.4769 50.6154C51.4521 49.7289 52 48.5265 52 47.2728V44.9091C52 37.089 45.0021 30.7272 36.3998 30.7272" fill="white"/>
<path d="M26.0001 0C17.3848 0 10.3999 6.34987 10.3999 14.1819C10.3999 22.0139 17.3848 28.3638 26.0001 28.3638C34.6154 28.3638 41.6003 22.0139 41.6003 14.1819C41.6003 6.34987 34.615 0 26.0001 0ZM26.0001 23.6363C23.9431 23.6363 21.9324 23.0818 20.2221 22.0429C18.5118 21.0041 17.1788 19.5275 16.3916 17.7999C15.6044 16.0723 15.3985 14.1713 15.7998 12.3373C16.201 10.5033 17.1915 8.81868 18.646 7.49643C20.1005 6.17419 21.9536 5.27374 23.971 4.90894C25.9884 4.54414 28.0795 4.73138 29.9799 5.44699C31.8803 6.16259 33.5045 7.37442 34.6473 8.92923C35.79 10.484 36.3999 12.312 36.3999 14.1819C36.3997 16.6893 35.304 19.094 33.3537 20.867C31.4034 22.64 28.7582 23.6361 26.0001 23.6363Z" fill="white"/>
</g>
<defs>
<clipPath id="clip0_1_92">
<rect width="52" height="52" fill="white"/>
</clipPath>
</defs>
</svg>
