<svg width="52" height="52" viewBox="0 0 52 52" fill="none" xmlns="http://www.w3.org/2000/svg">
<g clip-path="url(#clip0_1_81)">
<path d="M8.65133 16.4817H4.83039C3.54972 16.4803 2.3219 15.971 1.41633 15.0654C0.510755 14.1598 0.00139166 12.932 0 11.6513V7.8304C0.00139166 6.54972 0.510755 5.3219 1.41633 4.41633C2.3219 3.51075 3.54972 3.00139 4.83039 3H8.65133C9.93201 3.00139 11.1598 3.51075 12.0654 4.41633C12.971 5.3219 13.4803 6.54972 13.4817 7.8304V11.6513C13.4803 12.932 12.971 14.1598 12.0654 15.0654C11.1598 15.971 9.93201 16.4803 8.65133 16.4817ZM4.83039 6.85248C4.57209 6.85589 4.32533 6.96001 4.14267 7.14268C3.96001 7.32534 3.85589 7.5721 3.85248 7.8304V11.6513C3.85589 11.9096 3.96001 12.1564 4.14267 12.3391C4.32533 12.5217 4.57209 12.6258 4.83039 12.6292H8.65133C8.90963 12.6258 9.15639 12.5217 9.33905 12.3391C9.52172 12.1564 9.62584 11.9096 9.62924 11.6513V7.8304C9.62584 7.5721 9.52172 7.32534 9.33905 7.14268C9.15639 6.96001 8.90963 6.85589 8.65133 6.85248H4.83039Z" fill="#003865"/>
<path d="M47.1697 16.4817H22.1634C20.8827 16.4803 19.6549 15.971 18.7493 15.0654C17.8438 14.1598 17.3344 12.932 17.333 11.6513V7.8304C17.3344 6.54972 17.8438 5.3219 18.7493 4.41633C19.6549 3.51075 20.8827 3.00139 22.1634 3H47.1697C48.4504 3.00139 49.6782 3.51075 50.5838 4.41633C51.4894 5.3219 51.9987 6.54972 52.0001 7.8304V11.6513C51.9987 12.932 51.4894 14.1598 50.5838 15.0654C49.6782 15.971 48.4504 16.4803 47.1697 16.4817ZM22.1634 6.85248C21.9051 6.85589 21.6583 6.96001 21.4757 7.14268C21.293 7.32534 21.1889 7.5721 21.1855 7.8304V11.6513C21.1889 11.9096 21.293 12.1564 21.4757 12.3391C21.6583 12.5217 21.9051 12.6258 22.1634 12.6292H47.1697C47.428 12.6258 47.6748 12.5217 47.8574 12.3391C48.0401 12.1564 48.1442 11.9096 48.1476 11.6513V7.8304C48.1442 7.5721 48.0401 7.32534 47.8574 7.14268C47.6748 6.96001 47.428 6.85589 47.1697 6.85248H22.1634Z" fill="#003865"/>
<path d="M47.1697 32.8511H22.1634C20.8827 32.8497 19.6549 32.3404 18.7493 31.4348C17.8438 30.5292 17.3344 29.3014 17.333 28.0207V24.1998C17.3344 22.9191 17.8438 21.6913 18.7493 20.7857C19.6549 19.8801 20.8827 19.3708 22.1634 19.3694H47.1697C48.4504 19.3708 49.6782 19.8801 50.5838 20.7857C51.4894 21.6913 51.9987 22.9191 52.0001 24.1998V28.0207C51.9987 29.3014 51.4894 30.5292 50.5838 31.4348C49.6782 32.3404 48.4504 32.8497 47.1697 32.8511ZM22.1634 23.2219C21.9051 23.2253 21.6583 23.3294 21.4757 23.5121C21.293 23.6947 21.1889 23.9415 21.1855 24.1998V28.0207C21.1889 28.279 21.293 28.5258 21.4757 28.7084C21.6583 28.8911 21.9051 28.9952 22.1634 28.9986H47.1697C47.428 28.9952 47.6748 28.8911 47.8574 28.7084C48.0401 28.5258 48.1442 28.279 48.1476 28.0207V24.1998C48.1442 23.9415 48.0401 23.6947 47.8574 23.5121C47.6748 23.3294 47.428 23.2253 47.1697 23.2219H22.1634Z" fill="#003865"/>
<path d="M47.1697 49.222H22.1634C20.8827 49.2206 19.6549 48.7112 18.7493 47.8056C17.8438 46.9001 17.3344 45.6722 17.333 44.3916V40.5706C17.3344 39.29 17.8438 38.0621 18.7493 37.1566C19.6549 36.251 20.8827 35.7416 22.1634 35.7402H47.1697C48.4504 35.7416 49.6782 36.251 50.5838 37.1566C51.4894 38.0621 51.9987 39.29 52.0001 40.5706V44.3916C51.9987 45.6722 51.4894 46.9001 50.5838 47.8056C49.6782 48.7112 48.4504 49.2206 47.1697 49.222ZM22.1634 39.5927C21.9051 39.5961 21.6583 39.7002 21.4757 39.8829C21.293 40.0656 21.1889 40.3123 21.1855 40.5706V44.3916C21.1889 44.6499 21.293 44.8966 21.4757 45.0793C21.6583 45.262 21.9051 45.3661 22.1634 45.3695H47.1697C47.428 45.3661 47.6748 45.262 47.8574 45.0793C48.0401 44.8966 48.1442 44.6499 48.1476 44.3916V40.5706C48.1442 40.3123 48.0401 40.0656 47.8574 39.8829C47.6748 39.7002 47.428 39.5961 47.1697 39.5927H22.1634Z" fill="#003865"/>
<path d="M8.65133 32.8511H4.83039C3.54972 32.8497 2.3219 32.3404 1.41633 31.4348C0.510755 30.5292 0.00139166 29.3014 0 28.0207V24.1998C0.00139166 22.9191 0.510755 21.6913 1.41633 20.7857C2.3219 19.8801 3.54972 19.3708 4.83039 19.3694H8.65133C9.93201 19.3708 11.1598 19.8801 12.0654 20.7857C12.971 21.6913 13.4803 22.9191 13.4817 24.1998V28.0207C13.4803 29.3014 12.971 30.5292 12.0654 31.4348C11.1598 32.3404 9.93201 32.8497 8.65133 32.8511ZM4.83039 23.2219C4.57209 23.2253 4.32533 23.3294 4.14267 23.5121C3.96001 23.6947 3.85589 23.9415 3.85248 24.1998V28.0207C3.85589 28.279 3.96001 28.5258 4.14267 28.7084C4.32533 28.8911 4.57209 28.9952 4.83039 28.9986H8.65133C8.90963 28.9952 9.15639 28.8911 9.33905 28.7084C9.52172 28.5258 9.62584 28.279 9.62924 28.0207V24.1998C9.62584 23.9415 9.52172 23.6947 9.33905 23.5121C9.15639 23.3294 8.90963 23.2253 8.65133 23.2219H4.83039Z" fill="#003865"/>
<path d="M8.65133 49.222H4.83039C3.54972 49.2206 2.3219 48.7112 1.41633 47.8056C0.510755 46.9001 0.00139166 45.6722 0 44.3916V40.5706C0.00139166 39.29 0.510755 38.0621 1.41633 37.1566C2.3219 36.251 3.54972 35.7416 4.83039 35.7402H8.65133C9.93201 35.7416 11.1598 36.251 12.0654 37.1566C12.971 38.0621 13.4803 39.29 13.4817 40.5706V44.3916C13.4803 45.6722 12.971 46.9001 12.0654 47.8056C11.1598 48.7112 9.93201 49.2206 8.65133 49.222ZM4.83039 39.5927C4.57209 39.5961 4.32533 39.7002 4.14267 39.8829C3.96001 40.0656 3.85589 40.3123 3.85248 40.5706V44.3916C3.85589 44.6499 3.96001 44.8966 4.14267 45.0793C4.32533 45.262 4.57209 45.3661 4.83039 45.3695H8.65133C8.90963 45.3661 9.15639 45.262 9.33905 45.0793C9.52172 44.8966 9.62584 44.6499 9.62924 44.3916V40.5706C9.62584 40.3123 9.52172 40.0656 9.33905 39.8829C9.15639 39.7002 8.90963 39.5961 8.65133 39.5927H4.83039Z" fill="#003865"/>
</g>
<defs>
<clipPath id="clip0_1_81">
<rect width="52" height="52" fill="white"/>
</clipPath>
</defs>
</svg>
