<svg xmlns="http://www.w3.org/2000/svg" width="22.545" height="26.303" viewBox="0 0 22.545 26.303">
  <g id="Grupo_8775" data-name="Grupo 8775" transform="translate(-659.953 -604.973)">
    <g id="lock" transform="translate(659.953 604.973)">
      <path id="Trazado_17182" data-name="Trazado 17182" d="M23.288,13.523a3.758,3.758,0,0,1,3.758,3.758V24.8a3.758,3.758,0,0,1-3.758,3.758H8.258A3.758,3.758,0,0,1,4.5,24.8V17.28a3.758,3.758,0,0,1,3.758-3.758V9.765a7.515,7.515,0,1,1,15.03,0ZM15.773,4.755a5.01,5.01,0,0,1,5.01,5.01v3.758H10.763V9.765a5.01,5.01,0,0,1,5.01-5.01Zm7.515,11.273H8.258A1.253,1.253,0,0,0,7.005,17.28V24.8a1.253,1.253,0,0,0,1.253,1.253h15.03A1.253,1.253,0,0,0,24.54,24.8V17.28A1.253,1.253,0,0,0,23.288,16.028Z" transform="translate(-4.5 -2.25)" fill="#003865" fill-rule="evenodd"/>
    </g>
  </g>
</svg>
