<svg width="52" height="52" viewBox="0 0 52 52" fill="none" xmlns="http://www.w3.org/2000/svg">
<g clip-path="url(#clip0_14_105)">
<path d="M24.9197 31.1912C22.9334 31.5588 21.3082 31.1912 20.5859 29.9044C19.8636 28.6176 20.4053 26.7794 21.6693 25.3088C20.0441 23.6544 18.2384 22.5515 16.0714 22C15.5297 23.8382 14.2657 25.3088 12.821 25.3088C11.3764 25.3088 10.1124 24.0221 9.57063 22C7.22311 22.7353 5.23676 23.8382 3.79213 25.3088C5.05618 26.7794 5.59791 28.6176 4.8756 29.9044C4.15329 31.1912 2.34751 31.5588 0.541733 31.1912C0.180578 32.2941 0 33.3971 0 34.5C0 35.6029 0.180578 36.7059 0.361156 37.8088C2.34751 37.4412 3.97271 37.8088 4.69502 39.0956C5.41734 40.3824 4.8756 42.2206 3.61156 43.6912C5.23676 45.3456 7.04254 46.4485 9.20947 47C9.7512 45.1618 11.0152 43.6912 12.4599 43.6912C13.9045 43.6912 15.1685 44.9779 15.7103 47C17.8772 46.4485 19.8636 45.3456 21.3082 43.6912C20.0441 42.2206 19.5024 40.3824 20.2247 39.0956C20.947 37.8088 22.7528 37.4412 24.5586 37.8088C24.9197 36.7059 24.9197 35.6029 24.9197 34.5C24.9197 33.3971 25.1003 32.2941 24.9197 31.1912Z" stroke="#FFB81C" stroke-width="2" stroke-miterlimit="10" stroke-linecap="round" stroke-linejoin="round"/>
<path d="M13.5 39C15.433 39 17 37.2091 17 35C17 32.7909 15.433 31 13.5 31C11.567 31 10 32.7909 10 35C10 37.2091 11.567 39 13.5 39Z" stroke="#FFB81C" stroke-width="2" stroke-miterlimit="10" stroke-linecap="round" stroke-linejoin="round"/>
<path d="M20 46H48.2353C50.3059 46 52 44.3 52 42.2222V15.7778C52 13.7 50.3059 12 48.2353 12H30.3529" stroke="#FFB81C" stroke-width="2" stroke-miterlimit="10" stroke-linecap="round" stroke-linejoin="round"/>
<path d="M51 45L30.2941 12.5117L25.5882 5H20.8824H6.76471C4.69412 5 3 6.69014 3 8.75587V31.2911" stroke="#FFB81C" stroke-width="2" stroke-miterlimit="10" stroke-linecap="round" stroke-linejoin="round"/>
</g>
<defs>
<clipPath id="clip0_14_105">
<rect width="52" height="52" fill="white"/>
</clipPath>
</defs>
</svg>
