<svg id="Grupo_8401" data-name="Grupo 8401" xmlns="http://www.w3.org/2000/svg" width="88.594" height="82.735" viewBox="0 0 88.594 82.735">
  <path id="Trazado_16957" data-name="Trazado 16957" d="M.435,36.676a1.622,1.622,0,0,1,2.375-2.21l3.867,4.141V1.626a1.626,1.626,0,1,1,3.252,0V38.607L13.8,34.466a1.622,1.622,0,0,1,2.375,2.21q-3.34,3.577-6.68,7.154c-.026.029-.054.056-.083.083a1.622,1.622,0,0,1-2.293-.083L.435,36.676Z" transform="translate(52.6 82.735) rotate(180)" fill="#003865"/>
  <path id="Trazado_16956" data-name="Trazado 16956" d="M2210.29,212.493a1.854,1.854,0,0,1,0,3.708h-9.551a21.258,21.258,0,0,1-1.594-42.456,26.087,26.087,0,0,1,51.367,3.9,19.317,19.317,0,0,1-1.757,38.553h-10a1.854,1.854,0,0,1,0-3.708h10a15.608,15.608,0,1,0-.005-31.216,1.634,1.634,0,0,1-1.845-1.825,22.386,22.386,0,0,0-44.413-3.593,1.981,1.981,0,0,1-1.825,1.521,17.557,17.557,0,0,0,.073,35.113Z" transform="translate(-2179.477 -153.731)" fill="#003865"/>
</svg>
